<svg width="874" height="158" viewBox="0 0 437 79" fill="none" xmlns="http://www.w3.org/2000/svg">
<mask id="mask0" mask-type="alpha" maskUnits="userSpaceOnUse" x="0" y="0" width="437" height="79">
<mask id="path-1-outside-1" mask-type="luminance" maskUnits="userSpaceOnUse" x="0" y="0" width="437" height="79" fill="white">
<rect fill="white" width="437" height="79"/>
<path d="M1 27.333H9.96859V45.859C9.96859 55.894 15.7141 60.3851 25.1031 60.3851C35.1227 60.3851 37.9799 57.5236 37.9799 57.5236V49.7576C37.9799 49.7576 34.422 52.666 28.2561 52.666C23.2813 52.666 21.3895 49.7888 21.3895 45.0169V27.333H39.2566V20.5261H21.3895V2.14035L10.2489 10.7406V20.5261H1V27.333Z"/>
<path d="M51.1031 41.3679H88.0559C88.0559 35.1068 86.8648 19.6138 64.9338 19.6138C50.4299 19.6138 41.3211 28.3856 41.3211 39.9644C41.3211 53.1572 52.3917 60.3851 64.9338 60.3851C85.6644 60.3851 88.0559 47.7771 88.0559 47.7771H78.8523C78.8523 47.7771 77.8792 52.666 64.9338 52.666C55.4747 52.666 51.1732 47.4029 51.1031 41.3679ZM75.9329 34.4908H53.5503C53.5503 34.4908 55.0543 26.9821 64.7235 26.9821C74.9597 26.9821 75.9329 34.4908 75.9329 34.4908Z"/>
<path d="M128 46.8025C128 46.8025 126.5 52.666 116.106 52.666C108 52.666 103.181 47.6134 103.181 39.9644C103.181 33.0171 107.942 28 116 28C128 28 128 38.5 128 38.5H137.242C137.242 38.5 137.242 20.4871 116.106 19.6138C101.532 19.6138 92.4233 28.3856 92.4233 39.9644C92.4233 53.1572 103.494 60.3851 116.036 60.3851C136.145 60.3851 137.242 46.8025 137.242 46.8025H128Z"/>
<path d="M154.558 2.14035L142.997 10.7406V59.4729H154.558V35.8943C154.558 35.8943 156.59 27.333 166.61 27.333C172.075 27.333 175.999 29.8593 175.999 35.0522V59.4729H187.49V35.6136C187.49 25.719 181.814 19.6138 169.763 19.6138C156.66 19.6138 154.698 29.1575 154.558 30.0698V2.14035Z"/>
<path d="M244.414 2.14035C252.028 2.14035 258.778 3.52045 264.664 6.28064C270.596 8.99405 275.174 12.7835 278.397 17.6489C281.667 22.5143 283.301 28.0347 283.301 34.2101C283.301 38.6077 281.993 42.6544 279.378 46.3503C276.762 50.0461 273.445 53.0636 269.428 55.4028C265.411 57.7419 261.37 59.1454 257.306 59.6132H247.497V54.5607L240.981 59.7536C239.486 60.1278 237.688 60.315 235.586 60.315C232.503 60.315 229.723 59.5197 227.248 57.929C224.819 56.2916 222.904 54.0928 221.502 51.3326C220.148 48.5724 219.47 45.5316 219.47 42.21C219.47 38.5609 220.568 35.1457 222.763 31.9645C224.959 28.7365 227.691 26.1868 230.961 24.3155C234.278 22.3974 237.477 21.4383 240.56 21.4383C244.297 21.4383 247.544 22.7015 250.3 25.2277L253.943 20.8068H257.306V54.8414C262.445 53.625 266.298 51.5432 268.868 48.5958C271.437 45.6017 272.721 41.8591 272.721 37.3679C272.721 32.0815 271.553 27.2862 269.218 22.9822C266.882 18.6313 263.286 15.146 258.428 12.5262C253.57 9.90633 247.544 8.5964 240.35 8.5964C233.951 8.5964 228.205 9.88294 223.114 12.456C218.022 15.0291 214.052 18.608 211.202 23.1927C208.353 27.7774 206.928 32.9703 206.928 38.7714C206.928 44.6661 208.026 50.1631 210.221 55.2624C212.417 60.315 215.803 64.5488 220.381 67.964C224.959 71.4259 230.658 73.6013 237.477 74.4902L235.726 77.9989C227.178 78.0457 219.937 76.572 214.005 73.5779C208.119 70.6306 203.682 66.4669 200.692 61.0869C197.749 55.7068 196.278 49.3911 196.278 42.1398C196.278 34.5609 198.777 27.7072 203.775 21.5787C208.773 15.4501 215.033 10.6549 222.553 7.19291C230.074 3.73097 237.361 2 244.414 2V2.14035ZM239.509 52.8765C240.911 52.8765 242.219 52.7127 243.433 52.3853C244.694 52.011 246.049 51.356 247.497 50.4204V35.5434C247.217 33.3914 246.189 31.637 244.414 30.2803C242.686 28.8768 240.28 28.1751 237.197 28.1751C234.815 28.1751 233.017 29.0873 231.802 30.9119C230.588 32.7364 229.98 35.3797 229.98 38.8416C229.98 42.8649 230.798 46.2333 232.433 48.9467C234.068 51.6133 236.426 52.9467 239.509 52.9467V52.8765Z"/>
<path d="M324.996 59.4729H336.557V35.6136C336.557 25.719 331.232 19.6138 318.34 19.6138C302.925 19.6138 302.084 31.5434 302.084 31.5434L298.791 20.5261H292.065V59.4729H303.626V35.8943C303.626 35.8943 306.008 27.333 315.187 27.333C321.423 27.333 324.996 29.8593 324.996 35.0522V59.4729Z"/>
<path d="M357.008 58.4203C354.626 63.543 351.963 68.385 347.689 68.385C343.55 68.385 340.122 68.2447 340.122 68.2447V76.0419C340.122 76.0419 342.577 76.1042 348.81 76.1042C356.097 76.1042 360.511 72.6657 365.136 63.8237L387.908 20.5261H375.226L362.403 48.5257L350.282 20.5261H337.6L357.008 58.4203Z"/>
<path d="M402.998 20.5261H391.507V44.3854C391.507 54.28 396.832 60.3851 409.725 60.3851C425.14 60.3851 425.98 48.4555 425.98 48.4555L429.274 59.4729H436V20.5261H424.439V44.1047C424.439 44.1047 422.057 52.666 412.878 52.666C406.642 52.666 402.998 50.1397 402.998 44.9468V20.5261Z"/>
</mask>
<path d="M1 27.333H9.96859V45.859C9.96859 55.894 15.7141 60.3851 25.1031 60.3851C35.1227 60.3851 37.9799 57.5236 37.9799 57.5236V49.7576C37.9799 49.7576 34.422 52.666 28.2561 52.666C23.2813 52.666 21.3895 49.7888 21.3895 45.0169V27.333H39.2566V20.5261H21.3895V2.14035L10.2489 10.7406V20.5261H1V27.333Z" fill="white"/>
<path d="M51.1031 41.3679H88.0559C88.0559 35.1068 86.8648 19.6138 64.9338 19.6138C50.4299 19.6138 41.3211 28.3856 41.3211 39.9644C41.3211 53.1572 52.3917 60.3851 64.9338 60.3851C85.6644 60.3851 88.0559 47.7771 88.0559 47.7771H78.8523C78.8523 47.7771 77.8792 52.666 64.9338 52.666C55.4747 52.666 51.1732 47.4029 51.1031 41.3679ZM75.9329 34.4908H53.5503C53.5503 34.4908 55.0543 26.9821 64.7235 26.9821C74.9597 26.9821 75.9329 34.4908 75.9329 34.4908Z" fill="white"/>
<path d="M128 46.8025C128 46.8025 126.5 52.666 116.106 52.666C108 52.666 103.181 47.6134 103.181 39.9644C103.181 33.0171 107.942 28 116 28C128 28 128 38.5 128 38.5H137.242C137.242 38.5 137.242 20.4871 116.106 19.6138C101.532 19.6138 92.4233 28.3856 92.4233 39.9644C92.4233 53.1572 103.494 60.3851 116.036 60.3851C136.145 60.3851 137.242 46.8025 137.242 46.8025H128Z" fill="white"/>
<path d="M154.558 2.14035L142.997 10.7406V59.4729H154.558V35.8943C154.558 35.8943 156.59 27.333 166.61 27.333C172.075 27.333 175.999 29.8593 175.999 35.0522V59.4729H187.49V35.6136C187.49 25.719 181.814 19.6138 169.763 19.6138C156.66 19.6138 154.698 29.1575 154.558 30.0698V2.14035Z" fill="white"/>
<path d="M244.414 2.14035C252.028 2.14035 258.778 3.52045 264.664 6.28064C270.596 8.99405 275.174 12.7835 278.397 17.6489C281.667 22.5143 283.301 28.0347 283.301 34.2101C283.301 38.6077 281.993 42.6544 279.378 46.3503C276.762 50.0461 273.445 53.0636 269.428 55.4028C265.411 57.7419 261.37 59.1454 257.306 59.6132H247.497V54.5607L240.981 59.7536C239.486 60.1278 237.688 60.315 235.586 60.315C232.503 60.315 229.723 59.5197 227.248 57.929C224.819 56.2916 222.904 54.0928 221.502 51.3326C220.148 48.5724 219.47 45.5316 219.47 42.21C219.47 38.5609 220.568 35.1457 222.763 31.9645C224.959 28.7365 227.691 26.1868 230.961 24.3155C234.278 22.3974 237.477 21.4383 240.56 21.4383C244.297 21.4383 247.544 22.7015 250.3 25.2277L253.943 20.8068H257.306V54.8414C262.445 53.625 266.298 51.5432 268.868 48.5958C271.437 45.6017 272.721 41.8591 272.721 37.3679C272.721 32.0815 271.553 27.2862 269.218 22.9822C266.882 18.6313 263.286 15.146 258.428 12.5262C253.57 9.90633 247.544 8.5964 240.35 8.5964C233.951 8.5964 228.205 9.88294 223.114 12.456C218.022 15.0291 214.052 18.608 211.202 23.1927C208.353 27.7774 206.928 32.9703 206.928 38.7714C206.928 44.6661 208.026 50.1631 210.221 55.2624C212.417 60.315 215.803 64.5488 220.381 67.964C224.959 71.4259 230.658 73.6013 237.477 74.4902L235.726 77.9989C227.178 78.0457 219.937 76.572 214.005 73.5779C208.119 70.6306 203.682 66.4669 200.692 61.0869C197.749 55.7068 196.278 49.3911 196.278 42.1398C196.278 34.5609 198.777 27.7072 203.775 21.5787C208.773 15.4501 215.033 10.6549 222.553 7.19291C230.074 3.73097 237.361 2 244.414 2V2.14035ZM239.509 52.8765C240.911 52.8765 242.219 52.7127 243.433 52.3853C244.694 52.011 246.049 51.356 247.497 50.4204V35.5434C247.217 33.3914 246.189 31.637 244.414 30.2803C242.686 28.8768 240.28 28.1751 237.197 28.1751C234.815 28.1751 233.017 29.0873 231.802 30.9119C230.588 32.7364 229.98 35.3797 229.98 38.8416C229.98 42.8649 230.798 46.2333 232.433 48.9467C234.068 51.6133 236.426 52.9467 239.509 52.9467V52.8765Z" fill="white"/>
<path d="M324.996 59.4729H336.557V35.6136C336.557 25.719 331.232 19.6138 318.34 19.6138C302.925 19.6138 302.084 31.5434 302.084 31.5434L298.791 20.5261H292.065V59.4729H303.626V35.8943C303.626 35.8943 306.008 27.333 315.187 27.333C321.423 27.333 324.996 29.8593 324.996 35.0522V59.4729Z" fill="white"/>
<path d="M357.008 58.4203C354.626 63.543 351.963 68.385 347.689 68.385C343.55 68.385 340.122 68.2447 340.122 68.2447V76.0419C340.122 76.0419 342.577 76.1042 348.81 76.1042C356.097 76.1042 360.511 72.6657 365.136 63.8237L387.908 20.5261H375.226L362.403 48.5257L350.282 20.5261H337.6L357.008 58.4203Z" fill="white"/>
<path d="M402.998 20.5261H391.507V44.3854C391.507 54.28 396.832 60.3851 409.725 60.3851C425.14 60.3851 425.98 48.4555 425.98 48.4555L429.274 59.4729H436V20.5261H424.439V44.1047C424.439 44.1047 422.057 52.666 412.878 52.666C406.642 52.666 402.998 50.1397 402.998 44.9468V20.5261Z" fill="white"/>
<path d="M1 27.333H9.96859V45.859C9.96859 55.894 15.7141 60.3851 25.1031 60.3851C35.1227 60.3851 37.9799 57.5236 37.9799 57.5236V49.7576C37.9799 49.7576 34.422 52.666 28.2561 52.666C23.2813 52.666 21.3895 49.7888 21.3895 45.0169V27.333H39.2566V20.5261H21.3895V2.14035L10.2489 10.7406V20.5261H1V27.333Z" stroke="white" stroke-width="1.5" mask="url(#path-1-outside-1)"/>
<path d="M51.1031 41.3679H88.0559C88.0559 35.1068 86.8648 19.6138 64.9338 19.6138C50.4299 19.6138 41.3211 28.3856 41.3211 39.9644C41.3211 53.1572 52.3917 60.3851 64.9338 60.3851C85.6644 60.3851 88.0559 47.7771 88.0559 47.7771H78.8523C78.8523 47.7771 77.8792 52.666 64.9338 52.666C55.4747 52.666 51.1732 47.4029 51.1031 41.3679ZM75.9329 34.4908H53.5503C53.5503 34.4908 55.0543 26.9821 64.7235 26.9821C74.9597 26.9821 75.9329 34.4908 75.9329 34.4908Z" stroke="white" stroke-width="1.5" mask="url(#path-1-outside-1)"/>
<path d="M128 46.8025C128 46.8025 126.5 52.666 116.106 52.666C108 52.666 103.181 47.6134 103.181 39.9644C103.181 33.0171 107.942 28 116 28C128 28 128 38.5 128 38.5H137.242C137.242 38.5 137.242 20.4871 116.106 19.6138C101.532 19.6138 92.4233 28.3856 92.4233 39.9644C92.4233 53.1572 103.494 60.3851 116.036 60.3851C136.145 60.3851 137.242 46.8025 137.242 46.8025H128Z" stroke="white" stroke-width="1.5" mask="url(#path-1-outside-1)"/>
<path d="M154.558 2.14035L142.997 10.7406V59.4729H154.558V35.8943C154.558 35.8943 156.59 27.333 166.61 27.333C172.075 27.333 175.999 29.8593 175.999 35.0522V59.4729H187.49V35.6136C187.49 25.719 181.814 19.6138 169.763 19.6138C156.66 19.6138 154.698 29.1575 154.558 30.0698V2.14035Z" stroke="white" stroke-width="1.5" mask="url(#path-1-outside-1)"/>
<path d="M244.414 2.14035C252.028 2.14035 258.778 3.52045 264.664 6.28064C270.596 8.99405 275.174 12.7835 278.397 17.6489C281.667 22.5143 283.301 28.0347 283.301 34.2101C283.301 38.6077 281.993 42.6544 279.378 46.3503C276.762 50.0461 273.445 53.0636 269.428 55.4028C265.411 57.7419 261.37 59.1454 257.306 59.6132H247.497V54.5607L240.981 59.7536C239.486 60.1278 237.688 60.315 235.586 60.315C232.503 60.315 229.723 59.5197 227.248 57.929C224.819 56.2916 222.904 54.0928 221.502 51.3326C220.148 48.5724 219.47 45.5316 219.47 42.21C219.47 38.5609 220.568 35.1457 222.763 31.9645C224.959 28.7365 227.691 26.1868 230.961 24.3155C234.278 22.3974 237.477 21.4383 240.56 21.4383C244.297 21.4383 247.544 22.7015 250.3 25.2277L253.943 20.8068H257.306V54.8414C262.445 53.625 266.298 51.5432 268.868 48.5958C271.437 45.6017 272.721 41.8591 272.721 37.3679C272.721 32.0815 271.553 27.2862 269.218 22.9822C266.882 18.6313 263.286 15.146 258.428 12.5262C253.57 9.90633 247.544 8.5964 240.35 8.5964C233.951 8.5964 228.205 9.88294 223.114 12.456C218.022 15.0291 214.052 18.608 211.202 23.1927C208.353 27.7774 206.928 32.9703 206.928 38.7714C206.928 44.6661 208.026 50.1631 210.221 55.2624C212.417 60.315 215.803 64.5488 220.381 67.964C224.959 71.4259 230.658 73.6013 237.477 74.4902L235.726 77.9989C227.178 78.0457 219.937 76.572 214.005 73.5779C208.119 70.6306 203.682 66.4669 200.692 61.0869C197.749 55.7068 196.278 49.3911 196.278 42.1398C196.278 34.5609 198.777 27.7072 203.775 21.5787C208.773 15.4501 215.033 10.6549 222.553 7.19291C230.074 3.73097 237.361 2 244.414 2V2.14035ZM239.509 52.8765C240.911 52.8765 242.219 52.7127 243.433 52.3853C244.694 52.011 246.049 51.356 247.497 50.4204V35.5434C247.217 33.3914 246.189 31.637 244.414 30.2803C242.686 28.8768 240.28 28.1751 237.197 28.1751C234.815 28.1751 233.017 29.0873 231.802 30.9119C230.588 32.7364 229.98 35.3797 229.98 38.8416C229.98 42.8649 230.798 46.2333 232.433 48.9467C234.068 51.6133 236.426 52.9467 239.509 52.9467V52.8765Z" stroke="white" stroke-width="1.5" mask="url(#path-1-outside-1)"/>
<path d="M324.996 59.4729H336.557V35.6136C336.557 25.719 331.232 19.6138 318.34 19.6138C302.925 19.6138 302.084 31.5434 302.084 31.5434L298.791 20.5261H292.065V59.4729H303.626V35.8943C303.626 35.8943 306.008 27.333 315.187 27.333C321.423 27.333 324.996 29.8593 324.996 35.0522V59.4729Z" stroke="white" stroke-width="1.5" mask="url(#path-1-outside-1)"/>
<path d="M357.008 58.4203C354.626 63.543 351.963 68.385 347.689 68.385C343.55 68.385 340.122 68.2447 340.122 68.2447V76.0419C340.122 76.0419 342.577 76.1042 348.81 76.1042C356.097 76.1042 360.511 72.6657 365.136 63.8237L387.908 20.5261H375.226L362.403 48.5257L350.282 20.5261H337.6L357.008 58.4203Z" stroke="white" stroke-width="1.5" mask="url(#path-1-outside-1)"/>
<path d="M402.998 20.5261H391.507V44.3854C391.507 54.28 396.832 60.3851 409.725 60.3851C425.14 60.3851 425.98 48.4555 425.98 48.4555L429.274 59.4729H436V20.5261H424.439V44.1047C424.439 44.1047 422.057 52.666 412.878 52.666C406.642 52.666 402.998 50.1397 402.998 44.9468V20.5261Z" stroke="white" stroke-width="1.5" mask="url(#path-1-outside-1)"/>
</mask>
<g mask="url(#mask0)">
<path d="M-41 -226H475V290H-41V-226Z" fill="white"/>
</g>
</svg>
